<svg version="1.1" viewBox="0.0 0.0 96.0 96.0" fill="none" stroke="none" stroke-linecap="square" stroke-miterlimit="10" xmlns:xlink="http://www.w3.org/1999/xlink" xmlns="http://www.w3.org/2000/svg"><clipPath id="p.0"><path d="m0 0l96.0 0l0 96.0l-96.0 0l0 -96.0z" clip-rule="nonzero"/></clipPath><g clip-path="url(#p.0)"><path fill="#000000" fill-opacity="0.0" d="m0 0l96.0 0l0 96.0l-96.0 0z" fill-rule="evenodd"/><path fill="#000000" fill-opacity="0.0" d="m5.858357 38.479134l32.19351 2.1743774E-4l9.948135 -30.810059l9.948135 30.810059l32.193504 -2.1743774E-4l-26.04522 19.041447l9.948547 30.809925l-26.044968 -19.041801l-26.044968 19.041801l9.948545 -30.809925z" fill-rule="evenodd"/><path stroke="#000000" stroke-width="4.0" stroke-linejoin="round" stroke-linecap="butt" d="m5.858357 38.479134l32.19351 2.1743774E-4l9.948135 -30.810059l9.948135 30.810059l32.193504 -2.1743774E-4l-26.04522 19.041447l9.948547 30.809925l-26.044968 -19.041801l-26.044968 19.041801l9.948545 -30.809925z" fill-rule="evenodd"/></g></svg>